<svg id="Ebene_1" data-name="Ebene 1" xmlns="http://www.w3.org/2000/svg" viewBox="0 0 272.03 213.16"><defs><style>.cls-1{fill:#f3f3f2;stroke:#e30613;stroke-miterlimit:10;stroke-width:22px;}.cls-2{fill:#1d1d1b;}.cls-3{fill:#e30613;}</style></defs><title>Foodwaste Logo Definitiv</title><circle class="cls-1" cx="136.05" cy="106.15" r="95.15"/><g id="QZ8xAy.tif"><path class="cls-2" d="M2403.55,73.33c-3.3,1.7-4.66,4.79-5.87,7.93A92.31,92.31,0,0,0,2393,101a344.57,344.57,0,0,0-3.38,47.12c-0.11,9,2.24,17.24,6.15,25.25a47.28,47.28,0,0,1,3.92,9.82c0.67,2.92.33,6.08,0.24,9.13-0.19,6.68-.27,13.38-0.82,20-0.84,10.32-2,20.62-3.06,30.93-0.63,6.32-1.5,12.63-1.73,19a46.94,46.94,0,0,0,1.3,10.76c0.8,4,4.23,6.56,8.42,6.75a8.75,8.75,0,0,0,9-6c0.77-2.4,1.16-4.92,1.73-7.38a2.63,2.63,0,0,1,.31-0.59q0-5.45,0-10.9a4.1,4.1,0,0,1-.33-0.88c-0.64-5-1.29-9.94-1.88-14.91-1.06-9-2.22-17.91-3.05-26.88-0.61-6.65-.85-13.34-1.09-20-0.18-5-.52-10,1-14.92a57.47,57.47,0,0,0,2.38-17.67c0-7.69.25-15.38,0.15-23.07-0.16-13.32-.34-26.64-0.85-40a119,119,0,0,0-2-15.59c-0.5-2.89-1.3-5.82-4.09-7.64h-1.77Z" transform="translate(-2143.02 -66.92)"/></g><path class="cls-2" d="M2147.68,75.18c0.13,1.75.3,3.5,0.37,5.25,0.09,2.53.08,5.06,0.13,7.59,0.2,8.69.36,17.38,0.64,26.07a51.68,51.68,0,0,0,.83,6.38,8.51,8.51,0,0,0,.7,1.77l0.53,0.05a8.81,8.81,0,0,0,.84-2.07c0.45-3.4,1-6.81,1.17-10.24,0.59-10.06,1-20.12,1.57-30.18,0.09-1.59.41-3.17,0.63-4.75h0.63c0.14,1.56.38,3.12,0.41,4.68,0.14,7.93.12,15.86,0.37,23.78,0.17,5.38.64,10.76,1.11,16.13a1.6,1.6,0,1,0,2.62,0c0.54-4.84,1.05-9.68,1.3-14.54,0.4-7.87.55-15.75,0.87-23.62,0.09-2.16.37-4.31,0.57-6.47h0.63a33.77,33.77,0,0,1,.48,3.39c0.23,5.34.42,10.69,0.6,16,0.22,6.54.37,13.08,0.66,19.61a59.61,59.61,0,0,0,.85,6.52,7.22,7.22,0,0,0,.68,1.62l0.53,0.05a10.52,10.52,0,0,0,.85-2.38c0.48-4.6,1-9.21,1.25-13.82,0.47-9,.75-17.94,1.14-26.9,0.05-1.21.25-2.42,0.37-3.62l0.64,0c0.31,1.89.71,3.76,0.93,5.66a381.83,381.83,0,0,1,2.74,48.16c-0.07,5.33-.33,10.65-3.31,15.35a63.14,63.14,0,0,1-5.1,6.82,13.48,13.48,0,0,0-3.42,9.48c0.35,11.07.36,22.16,1,33.22,0.7,11.76,2.08,23.48,3,35.24,0.75,9.47,1.58,18.94,1.78,28.43,0.11,5-.85,10-1.72,14.89a9.13,9.13,0,0,1-7.77,7.28,8.4,8.4,0,0,1-9.17-7,74.89,74.89,0,0,1-1.73-13.46c-0.14-10.69-.15-21.4.37-32.07,0.57-11.58,1.75-23.13,2.75-34.68q1.3-15.12,2.77-30.23c0.47-4.88-1.21-9-4.36-12.67-1-1.17-2-2.37-3-3.57a19.11,19.11,0,0,1-4.46-12.61c0.16-10.31.28-20.63,0.8-30.92,0.37-7.52,1.3-15,2.07-22.52A49.05,49.05,0,0,1,2147,75.1Z" transform="translate(-2143.02 -66.92)"/><rect class="cls-2" x="91.66" y="60.63" width="12.5" height="112.07" rx="3.19" ry="3.19"/><rect class="cls-2" x="110.8" y="60.82" width="12.5" height="112.07" rx="3.19" ry="3.19"/><rect class="cls-2" x="129.82" y="60.29" width="12.5" height="112.07" rx="3.19" ry="3.19"/><rect class="cls-2" x="148.96" y="60.48" width="12.5" height="112.07" rx="3.19" ry="3.19"/><rect class="cls-2" x="167.64" y="60.48" width="12.5" height="112.07" rx="3.19" ry="3.19"/><rect class="cls-2" x="87.64" y="164.55" width="96.01" height="8.71" rx="2.22" ry="2.22"/><path class="cls-2" d="M2330.13,114.81c-7.65-5.54-28.47-9.51-53-9.51-24.1,0-44.55,4.11-52.49,9.51h105.45Z" transform="translate(-2143.02 -66.92)"/><path class="cls-2" d="M81.82,47.79h105a0.55,0.55,0,0,1,.55.55v4.79a4.34,4.34,0,0,1-4.34,4.34H85.5a4.34,4.34,0,0,1-4.34-4.34V48.45a0.66,0.66,0,0,1,.66-0.66Z"/><path class="cls-2" d="M2287.33,95.19h-19.82a5.74,5.74,0,0,0-5.74,5.74v1.81a5.74,5.74,0,0,0,5.74,5.74h19.82a5.74,5.74,0,0,0,5.74-5.74v-1.81A5.74,5.74,0,0,0,2287.33,95.19Zm-2,10.31h-15.64a4.14,4.14,0,1,1,0-8.28h15.64A4.14,4.14,0,1,1,2285.31,105.5Z" transform="translate(-2143.02 -66.92)"/><rect class="cls-3" x="2189" y="159.41" width="175.45" height="26.89" transform="translate(-1353.96 -1626.18) rotate(45)"/></svg>